<svg width="109" height="109" viewBox="0 0 109 109" fill="none" xmlns="http://www.w3.org/2000/svg">
<path fill-rule="evenodd" clip-rule="evenodd" d="M15.922 15.922C37.1512 -5.30732 71.6488 -5.30732 92.8781 15.922C114.107 37.1512 114.107 71.6488 92.8781 92.8781C71.6488 114.107 37.1512 114.107 15.922 92.8781C-5.30732 71.6488 -5.30732 37.1512 15.922 15.922ZM27.3659 27.3659C42.2927 12.439 66.5073 12.439 81.4342 27.3659C96.4439 42.2927 96.4439 66.5073 81.5171 81.5171C66.5073 96.4439 42.2927 96.4439 27.3659 81.5171C12.439 66.5073 12.439 42.2927 27.3659 27.3659Z" fill="white"/>
<path d="M72.7268 72.7268C62.6097 82.8439 46.2731 82.8439 36.1561 72.7268C26.039 62.6097 26.039 46.2731 36.1561 36.1561C44.0341 28.278 55.6439 26.5366 65.2634 30.9317C70.5707 33.3366 76.8731 32.0927 81.0195 27.9463C87.9853 20.9805 85.9951 9.039 76.9561 4.97558C56.8878 -4.14637 32.5073 -0.414662 16.0048 16.0878C-5.22443 37.317 -5.22443 71.8146 16.0048 93.0439C37.2341 114.273 71.7317 114.273 92.9609 93.0439L72.7268 72.7268Z" fill="#C0D475"/>
<path d="M92.7122 88.0683L57.1366 54.4C58.1317 52.9073 58.6293 51.0829 58.6293 49.2585C58.6293 46.6878 57.6341 44.2829 55.8098 42.4585L50.8341 37.4829L40.0537 27.6976C39.639 27.2829 38.9756 27.2829 38.478 27.6976C37.9805 28.1122 37.9805 28.8585 38.3951 29.3561L47.0195 38.8098L43.9512 41.8781L34.6634 33.1707C34.2488 32.7561 33.5024 32.7561 33.0049 33.1707C32.5073 33.5854 32.5073 34.4146 32.922 34.8293L41.5463 44.2L38.478 47.2683L29.1073 38.7268C28.6927 38.3122 28.0293 38.3122 27.5317 38.7268C27.0341 39.1415 27.0341 39.8878 27.4488 40.3854L37.3171 51.0829L42.2927 56.0585C45.5268 59.2927 50.5024 59.7073 54.2341 57.3854L87.9024 92.8781C87.9024 92.8781 87.9854 92.961 88.0683 93.0439C89.3951 94.3707 91.5512 94.2878 92.8781 92.8781C94.1219 91.4683 94.039 89.3122 92.7122 88.0683Z" fill="white"/>
<path d="M103.244 97.2732C101.502 95.5317 98.6 95.5317 96.7756 97.2732C95.0342 99.0146 95.0342 101.917 96.7756 103.741C98.5171 105.483 101.42 105.483 103.244 103.741C104.985 101.917 104.985 99.0976 103.244 97.2732Z" fill="white"/>
</svg>
